<?xml version="1.0" encoding="iso-8859-1"?>
<!-- Generator: Adobe Illustrator 19.0.0, SVG Export Plug-In . SVG Version: 6.00 Build 0)  -->
<svg version="1.1" id="Layer_1" xmlns="http://www.w3.org/2000/svg" xmlns:xlink="http://www.w3.org/1999/xlink" x="0px" y="0px"
	 viewBox="0 0 512 512" style="enable-background:new 0 0 512 512;" xml:space="preserve">
<g>
	<g>
		<polygon style="fill:#50A5DC;" points="36.485,148.707 207.659,319.882 36.485,491.056 		"/>
		<path d="M36.482,501.057c-1.288,0-2.587-0.249-3.824-0.762c-3.737-1.548-6.173-5.194-6.173-9.239V148.707
			c0-4.044,2.437-7.691,6.173-9.239c3.737-1.549,8.037-0.692,10.898,2.167L214.73,312.81c1.875,1.875,2.929,4.419,2.929,7.071
			s-1.054,5.196-2.929,7.071L43.556,498.127C41.643,500.04,39.084,501.057,36.482,501.057z M46.484,172.849v294.065l147.033-147.033
			L46.484,172.849z"/>
	</g>
	<g>
		<path d="M150.088,329.881c-2.559,0-5.119-0.976-7.071-2.929l-71.164-71.164c-3.905-3.905-3.905-10.237,0-14.143
			c3.905-3.905,10.237-3.905,14.143,0l71.164,71.164c3.905,3.905,3.905,10.237,0,14.143
			C155.207,328.905,152.647,329.881,150.088,329.881z"/>
	</g>
	<g>
		<polygon style="fill:#FCE600;" points="475.513,148.707 304.339,319.882 475.513,491.056 		"/>
		<path d="M475.516,501.057c-2.603,0-5.16-1.016-7.074-2.929L297.268,326.953c-1.875-1.875-2.929-4.419-2.929-7.071
			s1.054-5.196,2.929-7.071l171.175-171.174c2.86-2.859,7.161-3.717,10.898-2.167c3.737,1.548,6.173,5.194,6.173,9.239v342.349
			c0,4.044-2.437,7.691-6.173,9.239C478.103,500.808,476.804,501.057,475.516,501.057z M318.481,319.881l147.033,147.033V172.849
			L318.481,319.881z"/>
	</g>
	<g>
		<g>
			<path d="M255.999,512c-5.523,0-10-4.477-10-10V250.481c0-5.523,4.477-10,10-10c5.523,0,10,4.477,10,10V502
				C265.999,507.523,261.522,512,255.999,512z"/>
		</g>
		<g>
			<path d="M255.999,204.588c-5.523,0-10-4.477-10-10v-56.825c0-5.523,4.477-10,10-10c5.523,0,10,4.477,10,10v56.825
				C265.999,200.111,261.522,204.588,255.999,204.588z"/>
		</g>
	</g>
	<g>
		<path d="M106.128,83.552c-4.561-3.111-10.784-1.937-13.896,2.625c-7.582,11.114-14.035,23.031-19.181,35.422
			c-2.118,5.101,0.299,10.953,5.4,13.071c1.254,0.521,2.553,0.767,3.832,0.767c3.92,0,7.642-2.321,9.239-6.167
			c4.622-11.13,10.42-21.836,17.232-31.822C111.866,92.886,110.69,86.665,106.128,83.552z"/>
		<path d="M430.386,71.992c-0.158-8.091-9.016-12.977-15.944-8.794l-9.493,5.731c-16.927-19.722-37.798-36.134-60.91-47.821
			C316.34,7.102,286.45,0,255.199,0c-47.821,0-93.943,17.338-129.871,48.822c-4.153,3.64-4.57,9.958-0.93,14.112
			c3.641,4.154,9.958,4.57,14.112,0.93C170.789,35.578,212.229,20,255.199,20c51.202,0,98.73,21.508,132.364,59.425l-7.205,4.35
			c-6.928,4.183-6.73,14.297,0.357,18.205l34.86,19.224c7.086,3.908,15.745-1.32,15.587-9.411L430.386,71.992z"/>
	</g>
</g>
<g>
</g>
<g>
</g>
<g>
</g>
<g>
</g>
<g>
</g>
<g>
</g>
<g>
</g>
<g>
</g>
<g>
</g>
<g>
</g>
<g>
</g>
<g>
</g>
<g>
</g>
<g>
</g>
<g>
</g>
</svg>
