<?xml version="1.0" encoding="iso-8859-1"?>
<!-- Generator: Adobe Illustrator 19.0.0, SVG Export Plug-In . SVG Version: 6.00 Build 0)  -->
<svg version="1.1" id="Capa_1" xmlns="http://www.w3.org/2000/svg" xmlns:xlink="http://www.w3.org/1999/xlink" x="0px" y="0px"
	 viewBox="0 0 512.029 512.029" style="enable-background:new 0 0 512.029 512.029;" xml:space="preserve">
<path style="fill:#FFC107;" d="M176.029,128.028h144c97.202,0,176,78.798,176,176s-78.798,176-176,176h-144v-96h144
	c44.183,0,80-35.817,80-80s-35.817-80-80-80h-144v96l-160-144l160-144V128.028z"/>
<path d="M320.029,496.028h-144c-8.837,0-16-7.163-16-16v-96c0-8.837,7.163-16,16-16h144c35.346,0,64-28.654,64-64s-28.654-64-64-64
	h-128v80c0.014,8.837-7.137,16.012-15.974,16.026c-3.969,0.007-7.8-1.463-10.746-4.122l-160-144
	c-6.574-5.904-7.118-16.02-1.213-22.595c0.382-0.426,0.787-0.831,1.213-1.213l160-144c6.56-5.921,16.677-5.402,22.598,1.158
	c2.66,2.947,4.129,6.777,4.122,10.746v80h128c106.039,0,192,85.961,192,192S426.068,496.028,320.029,496.028z M192.029,464.028h128
	c88.366,0,160-71.634,160-160s-71.634-160-160-160h-144c-8.837,0-16-7.163-16-16V67.964L39.933,176.028l120.096,108.064v-60.064
	c0-8.837,7.163-16,16-16h144c53.019,0,96,42.981,96,96s-42.981,96-96,96h-128V464.028z"/>
<g>
</g>
<g>
</g>
<g>
</g>
<g>
</g>
<g>
</g>
<g>
</g>
<g>
</g>
<g>
</g>
<g>
</g>
<g>
</g>
<g>
</g>
<g>
</g>
<g>
</g>
<g>
</g>
<g>
</g>
</svg>
